<?xml version="1.0" encoding="UTF-8" standalone="no"?>
<!-- Created with Inkscape (http://www.inkscape.org/) -->

<svg
   width="339.08893"
   height="105.37291"
   viewBox="0 0 339.08893 105.37291"
   version="1.1"
   id="svg5"
   xml:space="preserve"
   inkscape:version="1.2 (dc2aedaf03, 2022-05-15)"
   sodipodi:docname="cloudy.svg"
   xmlns:inkscape="http://www.inkscape.org/namespaces/inkscape"
   xmlns:sodipodi="http://sodipodi.sourceforge.net/DTD/sodipodi-0.dtd"
   xmlns:xlink="http://www.w3.org/1999/xlink"
   xmlns="http://www.w3.org/2000/svg"
   xmlns:svg="http://www.w3.org/2000/svg"><sodipodi:namedview
     id="namedview7"
     pagecolor="#ffffff"
     bordercolor="#000000"
     borderopacity="0.25"
     inkscape:showpageshadow="2"
     inkscape:pageopacity="0.0"
     inkscape:pagecheckerboard="0"
     inkscape:deskcolor="#d1d1d1"
     inkscape:document-units="px"
     showgrid="false"
     inkscape:zoom="0.95703125"
     inkscape:cx="203.7551"
     inkscape:cy="256"
     inkscape:window-width="1366"
     inkscape:window-height="699"
     inkscape:window-x="0"
     inkscape:window-y="0"
     inkscape:window-maximized="1"
     inkscape:current-layer="layer1" /><defs
     id="defs2"><symbol
       id="t"
       overflow="visible"><path
         d="M 0.17188,-0.015625 C 0.160161,-0.003906 0.148443,0 0.14063,0 H 0.10938 C 0.07813,0 0.050786,-0.0039062 0.031255,-0.015625 0.019536,-0.035156 0.01563,-0.0625 0.01563,-0.09375 c 0,-0.03125 0.0039062,-0.050781 0.015625,-0.0625 C 0.050786,-0.175781 0.07813,-0.1875 0.10938,-0.1875 h 0.03125 c 0.007813,0 0.019531,0.007812 0.03125,0.015625 v 0.03125 H 0.14063 C 0.128911,-0.148438 0.117193,-0.15625 0.10938,-0.15625 c -0.011719,0 -0.023438,0.007812 -0.03125,0.015625 -0.011719,0.011719 -0.015625,0.027344 -0.015625,0.046875 0,0.023438 0.0039062,0.039062 0.015625,0.046875 0.0078125,0.011719 0.019531,0.015625 0.03125,0.015625 h 0.03125 c 0.007813,-0.0078125 0.019531,-0.015625 0.03125,-0.015625 z"
         id="path4524" /></symbol><symbol
       id="c"
       overflow="visible"><path
         d="m 0.125,-0.09375 c 0,-0.007812 -0.007812,-0.015625 -0.015625,-0.015625 -0.023438,0 -0.039062,0.007813 -0.046875,0.015625 V -0.0625 0 H 0.015625 V -0.14062 H 0.0625 v 0.03125 C 0.0703125,-0.117183 0.078125,-0.124995 0.078125,-0.124995 0.0859375,-0.132807 0.097656,-0.14062 0.109375,-0.14062 H 0.125 Z"
         id="path4527" /></symbol><symbol
       id="a"
       overflow="visible"><path
         d="M 0.15625,-0.078125 V -0.0625 H 0.0625 v 0.03125 H 0.09375 0.125 c 0.007812,0 0.019531,-0.0039062 0.03125,-0.015625 v 0.03125 C 0.144531,-0.003906 0.132812,0 0.125,0 H 0.09375 C 0.0625,0 0.039062,-0.0039062 0.03125,-0.015625 0.019531,-0.0234375 0.015625,-0.039063 0.015625,-0.0625 c 0,-0.03125 0.0039062,-0.050781 0.015625,-0.0625 0.0078125,-0.007812 0.03125,-0.015625 0.0625,-0.015625 0.019531,0 0.035156,0.007813 0.046875,0.015625 0.007813,0.011719 0.015625,0.027344 0.015625,0.046875 z m -0.046875,0 c 0,-0.0078125 -0.007813,-0.015625 -0.015625,-0.015625 v -0.015625 c -0.011719,0 -0.023438,0.007813 -0.03125,0.015625 v 0.015625 z"
         id="path4530" /></symbol><symbol
       id="e"
       overflow="visible"><path
         d="M 0.078125,-0.0625 0.0625,-0.046875 V -0.03125 H 0.078125 0.09375 C 0.101562,-0.0390625 0.109375,-0.050781 0.109375,-0.0625 Z M 0.15625,-0.078125 V 0 H 0.109375 V -0.015625 C 0.097656,-0.015625 0.085937,-0.0078125 0.078125,0 H 0.0625 0.03125 C 0.019531,-0.0078125 0.015625,-0.023438 0.015625,-0.046875 c 0,-0.0078125 0.0039062,-0.019531 0.015625,-0.03125 0.0078125,-0.0078125 0.023438,-0.015625 0.046875,-0.015625 h 0.03125 c 0,-0.007812 -0.007813,-0.015625 -0.015625,-0.015625 H 0.078125 0.046875 0.03125 v -0.03125 h 0.015625 0.03125 c 0.03125,0 0.050781,0.007813 0.0625,0.015625 0.007813,0.011719 0.015625,0.027344 0.015625,0.046875 z"
         id="path4533" /></symbol><symbol
       id="b"
       overflow="visible"><path
         d="m 0.078125,-0.17188 v 0.03125 h 0.03125 v 0.03125 h -0.03125 v 0.0625 0.015625 H 0.09375 0.109375 V -5e-6 H 0.078125 C 0.054687,-5e-6 0.039063,-0.0039112 0.03125,-0.01563 v -0.03125 -0.0625 H 0 v -0.03125 h 0.03125 v -0.03125 z"
         id="path4536" /></symbol><symbol
       id="i"
       overflow="visible"><path
         d="M 0.10938,-0.125 V -0.1875 H 0.156255 V 0 H 0.10938 v -0.015625 c 0,0 -0.007813,0.0078125 -0.015625,0.015625 H 0.07813 C 0.054692,0 0.039068,-0.0039062 0.031255,-0.015625 0.019536,-0.0234375 0.01563,-0.039063 0.01563,-0.0625 c 0,-0.03125 0.0039062,-0.050781 0.015625,-0.0625 0.0078125,-0.007812 0.023438,-0.015625 0.046875,-0.015625 0,0 0.0039062,0.007813 0.015625,0.015625 z M 0.093755,-0.03125 C 0.101567,-0.0390625 0.10938,-0.050781 0.10938,-0.0625 c 0,-0.019531 -0.007813,-0.03125 -0.015625,-0.03125 v -0.015625 c -0.011719,0 -0.023438,0.007813 -0.03125,0.015625 v 0.03125 0.03125 z"
         id="path4539" /></symbol><symbol
       id="h"
       overflow="visible"><path
         d="M 0.09375,-0.03125 H 0.109375 C 0.117188,-0.0390625 0.125,-0.050781 0.125,-0.0625 c 0,-0.019531 -0.007812,-0.03125 -0.015625,-0.03125 0,-0.007812 -0.007813,-0.015625 -0.015625,-0.015625 -0.011719,0 -0.023438,0.007813 -0.03125,0.015625 v 0.03125 0.03125 z M 0.0625,-0.125 h 0.015625 c 0.0078125,-0.007812 0.019531,-0.015625 0.03125,-0.015625 0.019531,0 0.035156,0.007813 0.046875,0.015625 0.007812,0.011719 0.015625,0.03125 0.015625,0.0625 0,0.023438 -0.007813,0.039062 -0.015625,0.046875 C 0.144531,-0.003906 0.128906,0 0.109375,0 h -0.03125 c 0,-0.0078125 -0.0078125,-0.015625 -0.015625,-0.015625 V 0 H 0.015625 V -0.1875 H 0.0625 Z"
         id="path4542" /></symbol><symbol
       id="g"
       overflow="visible"><path
         d="m 0,-0.14062 h 0.046875 l 0.03125,0.09375 0.03125,-0.09375 H 0.15625 L 0.109375,0.01563 c -0.011719,0.0078125 -0.023438,0.019531 -0.03125,0.03125 0,0.0078125 -0.011719,0.015625 -0.03125,0.015625 H 0.03125 V 0.031255 H 0.046875 V 0.01563 H 0.0625 V 5e-6 Z"
         id="path4545" /></symbol><symbol
       id="f"
       overflow="visible"><path
         d="M 0.015625,-0.14062 H 0.0625 V 0 H 0.015625 Z m 0,-0.046875 H 0.0625 v 0.03125 H 0.015625 Z"
         id="path4548" /></symbol><symbol
       id="s"
       overflow="visible"><path
         d="M 0.015625,-0.1875 H 0.0625 v 0.09375 l 0.046875,-0.046875 h 0.0625 L 0.09375,-0.078125 0.171875,0 H 0.125 L 0.0625,-0.0625 V 0 H 0.015625 Z"
         id="path4551" /></symbol><symbol
       id="r"
       overflow="visible"><path
         d="m 0.10938,-0.1875 v 0.03125 H 0.093755 0.07813 v 0.015625 h 0.03125 v 0.03125 H 0.07813 V 5e-6 H 0.031255 v -0.10938 H 5e-6 v -0.03125 h 0.03125 v -0.03125 C 0.0390675,-0.179688 0.054693,-0.1875 0.07813,-0.1875 Z"
         id="path4554" /></symbol><symbol
       id="d"
       overflow="visible"><path
         d="m 0.09375,-0.10938 c -0.011719,0 -0.023438,0.007813 -0.03125,0.015625 v 0.03125 0.03125 H 0.09375 0.109375 C 0.117188,-0.0390675 0.125,-0.050786 0.125,-0.062505 c 0,-0.019531 -0.007812,-0.03125 -0.015625,-0.03125 0,-0.007812 -0.007813,-0.015625 -0.015625,-0.015625 z m 0,-0.03125 c 0.019531,0 0.035156,0.007813 0.046875,0.015625 0.007813,0.011719 0.015625,0.03125 0.015625,0.0625 0,0.023438 -0.007812,0.039062 -0.015625,0.046875 C 0.128906,-0.003911 0.113281,-5e-6 0.09375,-5e-6 0.0625,-5e-6 0.039062,-0.0039112 0.03125,-0.01563 0.019531,-0.0234425 0.015625,-0.039068 0.015625,-0.062505 c 0,-0.03125 0.0039062,-0.050781 0.015625,-0.0625 0.0078125,-0.007812 0.03125,-0.015625 0.0625,-0.015625 z"
         id="path4557" /></symbol><symbol
       id="q"
       overflow="visible"><path
         d="m 0.15625,-0.10938 c 0,-0.007813 0.003906,-0.015625 0.015625,-0.015625 C 0.179688,-0.132817 0.1875,-0.14063 0.1875,-0.14063 c 0.019531,0 0.035156,0.007813 0.046875,0.015625 C 0.242188,-0.113286 0.25,-0.097661 0.25,-0.07813 V -5e-6 H 0.203125 V -0.07813 c 0,-0.0078125 -0.007813,-0.015625 -0.015625,-0.015625 V -0.10938 c -0.011719,0 -0.023438,0.007813 -0.03125,0.015625 v 0.03125 0.0625 H 0.109375 V -0.07813 -0.093755 c 0,-0.007812 -0.007813,-0.015625 -0.015625,-0.015625 -0.011719,0 -0.023438,0.007813 -0.03125,0.015625 v 0.03125 0.0625 H 0.015625 v -0.14062 H 0.0625 V -0.125 h 0.015625 c 0.0078125,-0.007812 0.019531,-0.015625 0.03125,-0.015625 0.007813,0 0.015625,0.007813 0.015625,0.015625 0.007812,0 0.019531,0.007812 0.03125,0.015625 z"
         id="path4560" /></symbol><symbol
       id="p"
       overflow="visible"><path
         d="M 0.15625,-0.078125 V 0 H 0.109375 V -0.0625 -0.078125 -0.09375 -0.109375 H 0.09375 c -0.011719,0 -0.023438,0.007813 -0.03125,0.015625 V -0.0625 0 H 0.015625 V -0.1875 H 0.0625 v 0.0625 h 0.015625 c 0.0078125,-0.007812 0.019531,-0.015625 0.03125,-0.015625 0.019531,0 0.03125,0.007813 0.03125,0.015625 0.007813,0.011719 0.015625,0.027344 0.015625,0.046875 z"
         id="path4563" /></symbol><symbol
       id="o"
       overflow="visible"><path
         d="m 0.03125,-0.1875 h 0.046875 l 0.0625,0.125 v -0.125 H 0.1875 V 0 H 0.140625 L 0.0625,-0.125 V 0 H 0.03125 Z"
         id="path4566" /></symbol><symbol
       id="n"
       overflow="visible"><path
         d="M 0.015625,-0.0625 V -0.140625 H 0.0625 v 0.015625 0.03125 0.015625 0.03125 c 0.0078125,0.011719 0.015625,0.015625 0.015625,0.015625 H 0.09375 c 0.007812,-0.0078125 0.015625,-0.023438 0.015625,-0.046875 v -0.0625 H 0.15625 V -5e-6 H 0.109375 V -0.01563 c 0,0 -0.007813,0.0078125 -0.015625,0.015625 H 0.0625 C 0.050781,-5e-6 0.039062,-0.0039112 0.03125,-0.01563 0.019531,-0.0234425 0.015625,-0.039068 0.015625,-0.062505 Z"
         id="path4569" /></symbol><symbol
       id="m"
       overflow="visible"><path
         d="M 0.15625,-0.078125 V 0 H 0.109375 V -0.0625 -0.078125 -0.09375 -0.109375 H 0.09375 c -0.011719,0 -0.023438,0.007813 -0.03125,0.015625 V -0.0625 0 H 0.015625 V -0.14062 H 0.0625 v 0.015625 h 0.015625 c 0.0078125,-0.007812 0.019531,-0.015625 0.03125,-0.015625 0.019531,0 0.03125,0.007813 0.03125,0.015625 0.007813,0.011719 0.015625,0.027344 0.015625,0.046875 z"
         id="path4572" /></symbol><symbol
       id="l"
       overflow="visible"><path
         d="m 0.03125,-0.1875 h 0.078125 c 0.019531,0 0.035156,0.007812 0.046875,0.015625 0.007812,0.011719 0.015625,0.027344 0.015625,0.046875 0,0.023438 -0.007813,0.039062 -0.015625,0.046875 C 0.144531,-0.066406 0.128906,-0.0625 0.109375,-0.0625 H 0.078125 V 0 H 0.03125 Z m 0.046875,0.03125 v 0.0625 H 0.09375 0.109375 C 0.117188,-0.101562 0.125,-0.113281 0.125,-0.125 c 0,-0.007812 -0.007812,-0.015625 -0.015625,-0.015625 0,-0.007813 -0.007813,-0.015625 -0.015625,-0.015625 z"
         id="path4575" /></symbol><symbol
       id="k"
       overflow="visible"><path
         d="M 0.015625,-0.14062 H 0.0625 V 0 c 0,0.019531 -0.0078125,0.035156 -0.015625,0.046875 0,0.0078125 -0.011719,0.015625 -0.03125,0.015625 h -0.03125 V 0.03125 H 0 c 0.0078125,0 0.015625,-0.0078125 0.015625,-0.015625 V 0 Z m 0,-0.046875 H 0.0625 v 0.03125 H 0.015625 Z"
         id="path4578" /></symbol><symbol
       id="j"
       overflow="visible"><path
         d="m 0.14062,-0.14062 v 0.046875 C 0.128901,-0.101557 0.117183,-0.10937 0.10937,-0.10937 H 0.093745 c -0.011719,0 -0.023438,0.007813 -0.03125,0.015625 v 0.03125 0.03125 h 0.03125 0.015625 c 0.007813,0 0.019531,-0.0039062 0.03125,-0.015625 V 5e-6 H 0.10937 0.093745 C 0.062495,5e-6 0.039057,-0.0039012 0.031245,-0.01562 0.019526,-0.0234325 0.01562,-0.039058 0.01562,-0.062495 c 0,-0.03125 0.0039062,-0.050781 0.015625,-0.0625 0.0078125,-0.007812 0.03125,-0.015625 0.0625,-0.015625 H 0.10937 Z"
         id="path4581" /></symbol></defs><g
     inkscape:label="Camada 1"
     inkscape:groupmode="layer"
     id="layer1"
     transform="translate(-575.8139,-203.89613)"><g
       id="g5093"><path
         d="m 807.86735,276.71995 c 4.52524,0 8.52255,-1.88552 11.46396,-5.27946 l 2.03636,4.82694 h 9.4276 v -36.9562 h -13.0478 v 24.21008 c -1.35757,1.20673 -2.94141,1.88552 -4.75151,1.88552 -4.67609,0 -4.67609,-4.44983 -4.67609,-6.03366 0,0 0,-0.0754 0,-0.0754 v -19.98652 h -13.0478 v 22.92793 c 0,8.89965 5.12862,14.48079 12.59528,14.48079 z"
         style="font-weight:800;font-size:75.4208px;font-family:Cantarell;-inkscape-font-specification:'Cantarell Ultra-Bold';letter-spacing:-3.23641px;fill:none;stroke:#1a1a1a;stroke-width:2.709;stroke-dasharray:none;stroke-opacity:1"
         id="path4892" /><g
         id="g5043"
         style="fill:#1a1a1a"><path
           d="m 712.89257,277.02163 c 5.65656,0 12.14274,-1.50841 16.14005,-3.69562 l -2.86599,-9.4276 c -3.01684,1.0559 -6.8633,1.65926 -10.10639,1.65926 -10.48349,0 -16.51716,-6.1845 -16.51716,-16.36631 0,-9.57844 5.35488,-14.48079 14.8579,-14.48079 4.07273,0 8.82424,0.7542 11.69023,1.96094 l 3.62019,-10.25723 c -5.05319,-2.18721 -9.95554,-3.2431 -15.15958,-3.2431 -16.81883,0 -28.58448,10.8606 -28.58448,27.30233 0,15.91379 11.01144,26.54812 26.92523,26.54812 z"
           style="font-weight:800;font-size:75.4208px;font-family:Cantarell;-inkscape-font-specification:'Cantarell Ultra-Bold';letter-spacing:-3.23641px;fill:#1a1a1a;fill-opacity:1;stroke:none;stroke-width:1.50925"
           id="path4886" /><path
           d="m 744.80223,276.87079 c 2.79057,0 5.73198,-0.52794 8.22086,-1.43299 l -2.5643,-8.59797 c -0.75421,0.22626 -1.58384,0.30168 -2.03636,0.30168 -1.96094,0 -3.01684,-1.20673 -3.01684,-3.54478 v -43.06528 h -12.82153 v 44.64912 c 0,7.46666 4.44983,11.69022 12.21817,11.69022 z"
           style="font-weight:800;font-size:75.4208px;font-family:Cantarell;-inkscape-font-specification:'Cantarell Ultra-Bold';letter-spacing:-3.23641px;fill:#1a1a1a;fill-opacity:1;stroke:none;stroke-width:1.50925"
           id="path4888" /><path
           d="m 771.50783,277.02163 c 12.36901,0 20.66529,-7.9946 20.66529,-19.91109 0,-11.2377 -7.54208,-18.55351 -19.30772,-18.55351 -12.44443,0 -20.74072,7.9946 -20.74072,19.98651 0,11.16228 7.54208,18.47809 19.38315,18.47809 z m 0.82962,-10.86059 c -4.3744,0 -6.93871,-3.16768 -6.93871,-8.44713 0,-5.20404 2.41347,-8.29629 6.56161,-8.29629 4.37441,0 6.93871,3.2431 6.93871,8.74881 0,5.0532 -2.41346,7.99461 -6.56161,7.99461 z"
           style="font-weight:800;font-size:75.4208px;font-family:Cantarell;-inkscape-font-specification:'Cantarell Ultra-Bold';letter-spacing:-3.23641px;fill:#1a1a1a;fill-opacity:1;stroke:none;stroke-width:1.50925"
           id="path4890" /><path
           d="m 850.33591,277.02163 c 4.82694,0 8.89966,-2.1872 11.61481,-5.88282 l 2.5643,5.12862 h 7.99461 v -55.73598 h -12.51985 v 20.43904 c -2.18721,-1.58384 -4.82693,-2.41346 -7.99461,-2.41346 -10.33265,0 -17.27136,7.76834 -17.27136,19.53398 0,11.46396 6.56161,18.93062 15.6121,18.93062 z m 9.65387,-13.4249 c -1.28216,1.65926 -3.2431,2.56431 -5.50572,2.56431 -4.07272,0 -6.48619,-3.16768 -6.48619,-8.59797 0,-5.12862 2.33804,-8.14545 6.33535,-8.14545 2.26262,0 4.29898,0.98047 5.65656,2.63973 z"
           style="font-weight:800;font-size:75.4208px;font-family:Cantarell;-inkscape-font-specification:'Cantarell Ultra-Bold';letter-spacing:-3.23641px;fill:#1a1a1a;fill-opacity:1;stroke:none;stroke-width:1.50925"
           id="path4894" /><path
           d="m 881.03891,292.63374 h 14.17911 l 5.73198,-16.36631 13.95285,-36.9562 h -12.97238 l -7.31582,24.73803 -6.63703,-24.73803 h -14.40537 l 14.17911,36.9562 z"
           style="font-weight:800;font-size:75.4208px;font-family:Cantarell;-inkscape-font-specification:'Cantarell Ultra-Bold';letter-spacing:-3.23641px;fill:#1a1a1a;fill-opacity:1;stroke:none;stroke-width:1.50925"
           id="path4896" /></g><g
         id="g4980"
         transform="matrix(0.2385819,0,0,0.2385819,543.93057,175.40504)"
         style="fill:#1a1a1a;fill-opacity:1;stroke:#000000;stroke-width:0;stroke-dasharray:none"><path
           d="m 462.97,157.87 c 35.586,15.832 52.793,56.254 40.828,92.449 -0.96875,2.9531 -4.125,4.5312 -7.0273,3.6641 -21.535,-6.1602 -44.344,-7.8906 -65.266,1.4258 -2.5469,1.1211 -5.5508,0.20312 -7.0273,-2.0859 -15.223,-22.145 -35.18,-34.617 -60.074,-43.832 -2.9531,-1.1211 -4.4297,-4.3281 -3.2578,-7.4844 14.406,-41.746 61.703,-62.008 101.82,-44.137 z"
           id="path4900"
           style="fill:#1a1a1a;fill-opacity:1;stroke:#000000;stroke-width:0;stroke-dasharray:none" /><path
           d="m 154.97,354.07 c 1.7305,45.258 50.348,73.004 89.754,52.078 2.2383,-1.3242 5.1406,-0.96875 7.0273,0.96875 38.133,40.117 100.29,44.289 143.26,10.285 2.3945,-1.9844 5.6523,-1.8828 7.7891,0.20312 52.844,50.551 140.3,11.914 142.24,-60.328 1.9336,-71.68 -81.863,-114.24 -138.57,-68.117 -5.7539,4.7344 -12.777,-4.0742 -7.0781,-8.7578 4.8359,-3.9219 9.9766,-7.3828 15.477,-10.336 -46.43,-62.211 -141.38,-54.93 -178.79,11.605 11.047,3.1055 21.129,8.7578 29.68,16.699 5.4492,4.9883 -2.1875,13.289 -7.6367,8.2461 -38.844,-35.992 -105.28,-8.6562 -103.14,47.449 z"
           id="path4902"
           style="fill:#1a1a1a;fill-opacity:1;stroke:#000000;stroke-width:0;stroke-dasharray:none" /><path
           d="m 447.8,125.13 -1.4766,13.949 c -0.71094,6.668 -11.148,5.8047 -10.387,-1.1211 l 1.4766,-13.949 c 0.71094,-6.8203 11.098,-5.7031 10.387,1.1211 z"
           id="path4904"
           style="fill:#1a1a1a;fill-opacity:1;stroke:#000000;stroke-width:0;stroke-dasharray:none" /><path
           d="m 391.95,131.14 5.7031,12.828 c 2.6992,6.1602 -6.7188,10.59 -9.5703,4.2266 l -5.6523,-12.828 c -2.8008,-6.2617 6.7188,-10.488 9.5195,-4.2266 z"
           id="path4906"
           style="fill:#1a1a1a;fill-opacity:1;stroke:#000000;stroke-width:0;stroke-dasharray:none" /><path
           d="m 346.59,164.29 11.352,8.2461 c 5.4492,3.9727 -0.50781,12.574 -6.1602,8.4492 l -11.301,-8.2461 c -5.5508,-4.0742 0.55859,-12.473 6.1094,-8.4492 z"
           id="path4908"
           style="fill:#1a1a1a;fill-opacity:1;stroke:#000000;stroke-width:0;stroke-dasharray:none" /><path
           d="m 538.36,249 -14,-1.4766 c -6.668,-0.71094 -5.8047,-11.098 1.1211,-10.387 l 13.949,1.4766 c 6.8203,0.76172 5.7031,11.098 -1.0703,10.387 z"
           id="path4910"
           style="fill:#1a1a1a;fill-opacity:1;stroke:#000000;stroke-width:0;stroke-dasharray:none" /><path
           d="m 532.3,193.15 -12.828,5.7031 c -6.1602,2.75 -10.59,-6.7188 -4.2266,-9.5195 l 12.828,-5.7031 c 6.2617,-2.8008 10.488,6.7695 4.2266,9.5195 z"
           id="path4912"
           style="fill:#1a1a1a;fill-opacity:1;stroke:#000000;stroke-width:0;stroke-dasharray:none" /><path
           d="m 499.16,147.79 -8.2461,11.352 c -3.9727,5.4492 -12.523,-0.50781 -8.4492,-6.1094 l 8.2461,-11.352 c 4.0742,-5.5508 12.473,0.60937 8.4492,6.1094 z"
           id="path4914"
           style="fill:#1a1a1a;fill-opacity:1;stroke:#000000;stroke-width:0;stroke-dasharray:none" /><use
           x="133.63672"
           y="560.76172"
           xlink:href="#t"
           id="use4916"
           style="fill:#1a1a1a;fill-opacity:1;stroke:#000000;stroke-width:0;stroke-dasharray:none" /><use
           x="133.82422"
           y="560.76172"
           xlink:href="#c"
           id="use4918"
           style="fill:#1a1a1a;fill-opacity:1;stroke:#000000;stroke-width:0;stroke-dasharray:none" /><use
           x="133.94922"
           y="560.76172"
           xlink:href="#a"
           id="use4920"
           style="fill:#1a1a1a;fill-opacity:1;stroke:#000000;stroke-width:0;stroke-dasharray:none" /><use
           x="134.12109"
           y="560.76172"
           xlink:href="#e"
           id="use4922"
           style="fill:#1a1a1a;fill-opacity:1;stroke:#000000;stroke-width:0;stroke-dasharray:none" /><use
           x="134.29297"
           y="560.76172"
           xlink:href="#b"
           id="use4924"
           style="fill:#1a1a1a;fill-opacity:1;stroke:#000000;stroke-width:0;stroke-dasharray:none" /><use
           x="134.41406"
           y="560.76172"
           xlink:href="#a"
           id="use4926"
           style="fill:#1a1a1a;fill-opacity:1;stroke:#000000;stroke-width:0;stroke-dasharray:none" /><use
           x="134.58594"
           y="560.76172"
           xlink:href="#i"
           id="use4928"
           style="fill:#1a1a1a;fill-opacity:1;stroke:#000000;stroke-width:0;stroke-dasharray:none" /><use
           x="134.85938"
           y="560.76172"
           xlink:href="#h"
           id="use4930"
           style="fill:#1a1a1a;fill-opacity:1;stroke:#000000;stroke-width:0;stroke-dasharray:none" /><use
           x="135.03906"
           y="560.76172"
           xlink:href="#g"
           id="use4932"
           style="fill:#1a1a1a;fill-opacity:1;stroke:#000000;stroke-width:0;stroke-dasharray:none" /><use
           x="135.29688"
           y="560.76172"
           xlink:href="#a"
           id="use4934"
           style="fill:#1a1a1a;fill-opacity:1;stroke:#000000;stroke-width:0;stroke-dasharray:none" /><use
           x="135.46875"
           y="560.76172"
           xlink:href="#b"
           id="use4936"
           style="fill:#1a1a1a;fill-opacity:1;stroke:#000000;stroke-width:0;stroke-dasharray:none" /><use
           x="135.58984"
           y="560.76172"
           xlink:href="#f"
           id="use4938"
           style="fill:#1a1a1a;fill-opacity:1;stroke:#000000;stroke-width:0;stroke-dasharray:none" /><use
           x="135.67578"
           y="560.76172"
           xlink:href="#s"
           id="use4940"
           style="fill:#1a1a1a;fill-opacity:1;stroke:#000000;stroke-width:0;stroke-dasharray:none" /><use
           x="135.84766"
           y="560.76172"
           xlink:href="#e"
           id="use4942"
           style="fill:#1a1a1a;fill-opacity:1;stroke:#000000;stroke-width:0;stroke-dasharray:none" /><use
           x="133.63672"
           y="561.01953"
           xlink:href="#r"
           id="use4944"
           style="fill:#1a1a1a;fill-opacity:1;stroke:#000000;stroke-width:0;stroke-dasharray:none" /><use
           x="133.74609"
           y="561.01953"
           xlink:href="#c"
           id="use4946"
           style="fill:#1a1a1a;fill-opacity:1;stroke:#000000;stroke-width:0;stroke-dasharray:none" /><use
           x="133.87109"
           y="561.01953"
           xlink:href="#d"
           id="use4948"
           style="fill:#1a1a1a;fill-opacity:1;stroke:#000000;stroke-width:0;stroke-dasharray:none" /><use
           x="134.04688"
           y="561.01953"
           xlink:href="#q"
           id="use4950"
           style="fill:#1a1a1a;fill-opacity:1;stroke:#000000;stroke-width:0;stroke-dasharray:none" /><use
           x="134.40234"
           y="561.01953"
           xlink:href="#b"
           id="use4952"
           style="fill:#1a1a1a;fill-opacity:1;stroke:#000000;stroke-width:0;stroke-dasharray:none" /><use
           x="134.52344"
           y="561.01953"
           xlink:href="#p"
           id="use4954"
           style="fill:#1a1a1a;fill-opacity:1;stroke:#000000;stroke-width:0;stroke-dasharray:none" /><use
           x="134.70312"
           y="561.01953"
           xlink:href="#a"
           id="use4956"
           style="fill:#1a1a1a;fill-opacity:1;stroke:#000000;stroke-width:0;stroke-dasharray:none" /><use
           x="134.96484"
           y="561.01953"
           xlink:href="#o"
           id="use4958"
           style="fill:#1a1a1a;fill-opacity:1;stroke:#000000;stroke-width:0;stroke-dasharray:none" /><use
           x="135.17969"
           y="561.01953"
           xlink:href="#d"
           id="use4960"
           style="fill:#1a1a1a;fill-opacity:1;stroke:#000000;stroke-width:0;stroke-dasharray:none" /><use
           x="135.35156"
           y="561.01953"
           xlink:href="#n"
           id="use4962"
           style="fill:#1a1a1a;fill-opacity:1;stroke:#000000;stroke-width:0;stroke-dasharray:none" /><use
           x="135.53516"
           y="561.01953"
           xlink:href="#m"
           id="use4964"
           style="fill:#1a1a1a;fill-opacity:1;stroke:#000000;stroke-width:0;stroke-dasharray:none" /><use
           x="135.80469"
           y="561.01953"
           xlink:href="#l"
           id="use4966"
           style="fill:#1a1a1a;fill-opacity:1;stroke:#000000;stroke-width:0;stroke-dasharray:none" /><use
           x="135.99219"
           y="561.01953"
           xlink:href="#c"
           id="use4968"
           style="fill:#1a1a1a;fill-opacity:1;stroke:#000000;stroke-width:0;stroke-dasharray:none" /><use
           x="136.11719"
           y="561.01953"
           xlink:href="#d"
           id="use4970"
           style="fill:#1a1a1a;fill-opacity:1;stroke:#000000;stroke-width:0;stroke-dasharray:none" /><use
           x="136.29297"
           y="561.01953"
           xlink:href="#k"
           id="use4972"
           style="fill:#1a1a1a;fill-opacity:1;stroke:#000000;stroke-width:0;stroke-dasharray:none" /><use
           x="136.37891"
           y="561.01953"
           xlink:href="#a"
           id="use4974"
           style="fill:#1a1a1a;fill-opacity:1;stroke:#000000;stroke-width:0;stroke-dasharray:none" /><use
           x="136.55078"
           y="561.01953"
           xlink:href="#j"
           id="use4976"
           style="fill:#1a1a1a;fill-opacity:1;stroke:#000000;stroke-width:0;stroke-dasharray:none" /><use
           x="136.70312"
           y="561.01953"
           xlink:href="#b"
           id="use4978"
           style="fill:#1a1a1a;fill-opacity:1;stroke:#000000;stroke-width:0;stroke-dasharray:none" /></g></g></g></svg>
