<?xml version="1.0" encoding="UTF-8" standalone="no"?>
<svg
   viewBox="0 0 24 24"
   version="1.1"
   id="svg116"
   sodipodi:docname="moon.svg"
   inkscape:version="1.2.1 (9c6d41e410, 2022-07-14)"
   xmlns:inkscape="http://www.inkscape.org/namespaces/inkscape"
   xmlns:sodipodi="http://sodipodi.sourceforge.net/DTD/sodipodi-0.dtd"
   xmlns="http://www.w3.org/2000/svg"
   xmlns:svg="http://www.w3.org/2000/svg">
  <defs
     id="defs120" />
  <sodipodi:namedview
     id="namedview118"
     pagecolor="#ffffff"
     bordercolor="#000000"
     borderopacity="0.25"
     inkscape:showpageshadow="2"
     inkscape:pageopacity="0.0"
     inkscape:pagecheckerboard="0"
     inkscape:deskcolor="#d1d1d1"
     showgrid="false"
     inkscape:zoom="19.583333"
     inkscape:cx="26.144681"
     inkscape:cy="12"
     inkscape:window-width="1366"
     inkscape:window-height="699"
     inkscape:window-x="0"
     inkscape:window-y="0"
     inkscape:window-maximized="1"
     inkscape:current-layer="svg116" />
  <g
     data-name="moon"
     id="g112"
     style="fill:#3399ff;fill-opacity:1">
    <rect
       width="24"
       height="24"
       opacity="0"
       id="rect108"
       x="0"
       y="0"
       style="fill:#3399ff;fill-opacity:1" />
    <path
       d="m 12.3,22 h -0.1 a 10.31,10.31 0 0 1 -7.34,-3.15 10.46,10.46 0 0 1 -0.26,-14 10.13,10.13 0 0 1 4,-2.74 1,1 0 0 1 1.06,0.22 1,1 0 0 1 0.24,1 8.4,8.4 0 0 0 1.94,8.81 8.47,8.47 0 0 0 8.83,1.94 1,1 0 0 1 1.27,1.29 10.16,10.16 0 0 1 -2.34,3.63 10.28,10.28 0 0 1 -7.3,3 z"
       id="path110"
       style="fill:#3399ff;fill-opacity:1" />
  </g>
</svg>
